<svg xmlns="http://www.w3.org/2000/svg" version="1.1" xmlns:xlink="http://www.w3.org/1999/xlink" xmlns:svgjs="http://svgjs.dev/svgjs" width="1000" height="1000" viewBox="0 0 1000 1000"><rect width="1000" height="1000" fill="#ffffff"></rect><g transform="matrix(0.7,0,0,0.7,150.07466666666664,369.1872681250001)"><svg viewBox="0 0 375 140" data-background-color="#000000" preserveAspectRatio="xMidYMid meet" height="373" width="1000" xmlns="http://www.w3.org/2000/svg" xmlns:xlink="http://www.w3.org/1999/xlink"><defs></defs><g id="tight-bounds" transform="matrix(1,0,0,1,-0.03976000000000113,0.14087499999996567)"><svg viewBox="0 0 375.07953 139.71807" height="139.71807" width="375.07953"><g><svg></svg></g><g><svg viewBox="0 0 375.07953 139.71807" height="139.71807" width="375.07953"><g transform="matrix(1,0,0,1,-10.22024,-55.76675)"><path d="M10.22 191.433v-135.666h375.08v135.666h-66.584l0-3.127h63.457v-129.412h-368.826v129.412h35.473l0 3.127z" fill="#89939e" data-fill-palette-color="tertiary"></path><path d="M63.346 195.485c-1.643 0-2.91-0.431-3.803-1.293-0.894-0.862-1.341-2.24-1.341-4.134v0c0-1.894 0.447-3.272 1.341-4.134 0.892-0.862 2.16-1.293 3.803-1.292v0c1.643 0 2.911 0.431 3.805 1.292 0.892 0.862 1.338 2.24 1.339 4.134v0c0 1.894-0.446 3.272-1.339 4.134-0.894 0.862-2.163 1.293-3.805 1.293zM63.346 193.088c0.305 0 0.534-0.081 0.687-0.242 0.153-0.162 0.229-0.413 0.229-0.755v0-4.066c0-0.341-0.076-0.592-0.229-0.754-0.153-0.162-0.382-0.242-0.687-0.243v0c-0.305 0-0.534 0.081-0.687 0.243-0.153 0.162-0.229 0.413-0.229 0.754v0 4.066c0 0.35 0.076 0.603 0.229 0.76 0.153 0.158 0.382 0.237 0.687 0.237zM68.948 195.296v-2.208h0.673v-6.06h-0.673v-2.208h5.911c1.158 0 2.042 0.249 2.653 0.746 0.61 0.499 0.916 1.305 0.915 2.419v0c0 1.113-0.305 1.918-0.915 2.415-0.61 0.499-1.495 0.749-2.653 0.749v0h-1.468v1.939h1.293v2.208zM73.391 189.237h0.458c0.521 0 0.781-0.287 0.781-0.862v0-0.485c0-0.296-0.065-0.514-0.194-0.654-0.131-0.138-0.327-0.207-0.587-0.208v0h-0.458zM87.974 195.296h-9.089v-2.208h0.673v-6.06h-0.673v-2.208h9.089v4.067h-3.016v-1.859h-1.629v2.128h1.185v1.535h-1.185v2.397h1.629v-2.128h3.016zM96.242 187.028v-2.208h4.417v2.208h-0.673v8.268h-3.784l-3.946-6.073v3.865h0.647v2.208h-4.417v-2.208h0.673v-6.06h-0.673v-2.208h4.861l3.542 5.4v-3.192zM109.385 195.485c-0.862 0-1.676-0.075-2.443-0.224-0.768-0.147-1.359-0.315-1.772-0.503v0-2.667h2.962c0 0.278 0.063 0.48 0.189 0.606 0.126 0.126 0.355 0.189 0.687 0.189v0c0.278 0 0.478-0.043 0.597-0.129 0.122-0.084 0.183-0.212 0.184-0.383v0c0-0.144-0.058-0.268-0.175-0.371-0.117-0.102-0.319-0.207-0.606-0.315v0l-1.158-0.404c-0.996-0.377-1.713-0.821-2.15-1.334-0.434-0.512-0.652-1.203-0.651-2.073v0c0-1.059 0.348-1.865 1.045-2.416 0.695-0.553 1.855-0.829 3.479-0.829v0c0.781 0 1.515 0.078 2.203 0.234 0.686 0.158 1.24 0.367 1.662 0.627v0 2.411h-2.693c0-0.449-0.278-0.673-0.835-0.674v0c-0.269 0-0.461 0.033-0.574 0.1-0.111 0.068-0.167 0.188-0.167 0.358v0c0 0.153 0.066 0.274 0.197 0.364 0.129 0.09 0.342 0.184 0.638 0.283v0l1.172 0.404c0.952 0.323 1.645 0.742 2.081 1.257 0.434 0.517 0.652 1.193 0.652 2.028v0c0 1.14-0.383 2.002-1.15 2.586-0.768 0.584-1.893 0.875-3.374 0.875zM119.349 195.485c-1.643 0-2.91-0.431-3.803-1.293-0.894-0.862-1.341-2.24-1.341-4.134v0c0-1.894 0.447-3.272 1.341-4.134 0.892-0.862 2.16-1.293 3.803-1.292v0c1.643 0 2.911 0.431 3.805 1.292 0.892 0.862 1.338 2.24 1.339 4.134v0c0 1.894-0.446 3.272-1.339 4.134-0.894 0.862-2.163 1.293-3.805 1.293zM119.349 193.088c0.305 0 0.534-0.081 0.687-0.242 0.153-0.162 0.229-0.413 0.229-0.755v0-4.066c0-0.341-0.076-0.592-0.229-0.754-0.153-0.162-0.382-0.242-0.687-0.243v0c-0.305 0-0.534 0.081-0.687 0.243-0.153 0.162-0.229 0.413-0.229 0.754v0 4.066c0 0.35 0.076 0.603 0.229 0.76 0.153 0.158 0.382 0.237 0.687 0.237zM129.987 195.485c-1.409 0-2.498-0.31-3.267-0.929-0.767-0.619-1.15-1.625-1.15-3.017v0-4.511h-0.673v-2.208h4.982v2.208h-0.538v5.198c0 0.296 0.065 0.514 0.193 0.655 0.131 0.138 0.327 0.207 0.588 0.207v0c0.26 0 0.455-0.069 0.584-0.207 0.131-0.14 0.197-0.358 0.197-0.655v0-5.198h-0.539v-2.208h4.619v2.208h-0.674v4.511c0 1.391-0.373 2.397-1.117 3.017-0.745 0.619-1.813 0.929-3.205 0.929zM135.467 195.296v-2.208h0.674v-6.06h-0.674v-2.208h6.181c1.158 0 2.042 0.238 2.653 0.714 0.61 0.476 0.916 1.248 0.915 2.316v0c0 0.601-0.121 1.122-0.363 1.562-0.242 0.44-0.588 0.745-1.037 0.916v0l0.014 0.134c0.862 0.135 1.293 0.664 1.292 1.589v0 1.037h0.633v2.208h-4.268v-3.164c0-0.35-0.052-0.615-0.157-0.795-0.102-0.18-0.264-0.301-0.484-0.363-0.219-0.063-0.531-0.094-0.935-0.094v0 2.208h0.889v2.208zM139.911 189.237h0.727c0.26 0 0.455-0.07 0.585-0.21 0.131-0.138 0.197-0.355 0.196-0.652v0-0.485c0-0.296-0.066-0.514-0.196-0.654-0.129-0.138-0.324-0.207-0.585-0.208v0h-0.727zM151.465 195.485c-1.697 0-3.006-0.431-3.927-1.293-0.919-0.862-1.379-2.24-1.379-4.134v0c0-3.618 1.76-5.427 5.279-5.426v0c0.853 0 1.645 0.103 2.375 0.309 0.733 0.206 1.278 0.435 1.637 0.687v0 3.366h-3.231v-0.969c0-0.341-0.076-0.592-0.229-0.754-0.153-0.162-0.382-0.242-0.687-0.243v0c-0.305 0-0.534 0.081-0.687 0.243-0.153 0.162-0.229 0.413-0.229 0.754v0 4.066c0 0.341 0.076 0.592 0.229 0.755 0.153 0.162 0.382 0.242 0.687 0.242v0c0.305 0 0.534-0.081 0.687-0.242 0.153-0.162 0.229-0.413 0.229-0.755v0-1.09h3.231v3.487c-0.368 0.251-0.914 0.48-1.637 0.687-0.722 0.206-1.505 0.31-2.348 0.31zM165.051 195.296h-9.089v-2.208h0.673v-6.06h-0.673v-2.208h9.089v4.067h-3.016v-1.859h-1.629v2.128h1.185v1.535h-1.185v2.397h1.629v-2.128h3.016zM174.827 195.485c-1.697 0-3.006-0.431-3.926-1.293-0.919-0.862-1.379-2.24-1.379-4.134v0c0-3.618 1.76-5.427 5.278-5.426v0c0.853 0 1.645 0.103 2.376 0.309 0.733 0.206 1.278 0.435 1.637 0.687v0 3.366h-3.232v-0.969c0-0.341-0.076-0.592-0.229-0.754-0.153-0.162-0.382-0.242-0.686-0.243v0c-0.305 0-0.534 0.081-0.687 0.243-0.153 0.162-0.229 0.413-0.229 0.754v0 4.066c0 0.341 0.076 0.592 0.229 0.755 0.153 0.162 0.382 0.242 0.687 0.242v0c0.305 0 0.534-0.081 0.686-0.242 0.153-0.162 0.229-0.413 0.229-0.755v0-1.09h3.232v3.487c-0.368 0.251-0.914 0.48-1.637 0.687-0.722 0.206-1.505 0.31-2.349 0.31zM184.388 195.485c-1.643 0-2.91-0.431-3.803-1.293-0.894-0.862-1.341-2.24-1.341-4.134v0c0-1.894 0.447-3.272 1.341-4.134 0.892-0.862 2.16-1.293 3.803-1.292v0c1.643 0 2.911 0.431 3.805 1.292 0.892 0.862 1.338 2.24 1.339 4.134v0c0 1.894-0.446 3.272-1.339 4.134-0.894 0.862-2.163 1.293-3.805 1.293zM184.388 193.088c0.305 0 0.534-0.081 0.687-0.242 0.153-0.162 0.229-0.413 0.228-0.755v0-4.066c0-0.341-0.076-0.592-0.228-0.754-0.153-0.162-0.382-0.242-0.687-0.243v0c-0.305 0-0.534 0.081-0.687 0.243-0.153 0.162-0.229 0.413-0.229 0.754v0 4.066c0 0.35 0.076 0.603 0.229 0.76 0.153 0.158 0.382 0.237 0.687 0.237zM197.746 187.028v-2.208h4.416v2.208h-0.673v8.268h-3.784l-3.945-6.073v3.865h0.646v2.208h-4.417v-2.208h0.674v-6.06h-0.674v-2.208h4.862l3.541 5.4v-3.192zM212.719 184.82v3.259h-2.316v-1.051h-0.862v6.06h0.943v2.208h-5.655v-2.208h0.942v-6.06h-0.862v1.051h-2.316v-3.259zM222.266 195.296h-9.089v-2.208h0.673v-6.06h-0.673v-2.208h9.089v4.067h-3.016v-1.859h-1.629v2.128h1.185v1.535h-1.185v2.397h1.629v-2.128h3.016zM230.534 187.028v-2.208h4.417v2.208h-0.673v8.268h-3.784l-3.945-6.073v3.865h0.646v2.208h-4.417v-2.208h0.673v-6.06h-0.673v-2.208h4.861l3.542 5.4v-3.192zM245.508 184.82v3.259h-2.316v-1.051h-0.862v6.06h0.943v2.208h-5.656v-2.208h0.943v-6.06h-0.862v1.051h-2.316v-3.259zM254.18 195.485c-0.862 0-1.677-0.075-2.446-0.224-0.767-0.147-1.356-0.315-1.769-0.503v0-2.667h2.963c0 0.278 0.063 0.48 0.188 0.606 0.126 0.126 0.355 0.189 0.687 0.189v0c0.278 0 0.478-0.043 0.6-0.129 0.12-0.084 0.18-0.212 0.181-0.383v0c0-0.144-0.058-0.268-0.175-0.371-0.117-0.102-0.319-0.207-0.606-0.315v0l-1.158-0.404c-0.996-0.377-1.712-0.821-2.147-1.334-0.436-0.512-0.654-1.203-0.654-2.073v0c0-1.059 0.347-1.865 1.042-2.416 0.697-0.553 1.857-0.829 3.482-0.829v0c0.781 0 1.514 0.078 2.201 0.234 0.688 0.158 1.242 0.367 1.664 0.627v0 2.411h-2.693c0-0.449-0.278-0.673-0.835-0.674v0c-0.269 0-0.46 0.033-0.571 0.1-0.113 0.068-0.17 0.188-0.17 0.358v0c0 0.153 0.065 0.274 0.194 0.364 0.131 0.09 0.345 0.184 0.641 0.283v0l1.172 0.404c0.952 0.323 1.645 0.742 2.079 1.257 0.436 0.517 0.654 1.193 0.654 2.028v0c0 1.14-0.384 2.002-1.152 2.586-0.767 0.584-1.891 0.875-3.372 0.875zM268.171 195.296h-9.09v-2.208h0.674v-6.06h-0.674v-2.208h9.09v4.067h-3.017v-1.859h-1.629v2.128h1.185v1.535h-1.185v2.397h1.629v-2.128h3.017zM268.682 195.296v-2.208h0.674v-6.06h-0.674v-2.208h6.181c1.158 0 2.042 0.238 2.653 0.714 0.61 0.476 0.916 1.248 0.915 2.316v0c0 0.601-0.121 1.122-0.363 1.562-0.242 0.44-0.588 0.745-1.037 0.916v0l0.013 0.134c0.862 0.135 1.293 0.664 1.293 1.589v0 1.037h0.633v2.208h-4.269v-3.164c0-0.35-0.052-0.615-0.156-0.795-0.102-0.18-0.263-0.301-0.482-0.363-0.221-0.063-0.533-0.094-0.937-0.094v0 2.208h0.889v2.208zM273.126 189.237h0.727c0.26 0 0.456-0.07 0.587-0.21 0.129-0.138 0.194-0.355 0.194-0.652v0-0.485c0-0.296-0.065-0.514-0.194-0.654-0.131-0.138-0.327-0.207-0.587-0.208v0h-0.727zM284.518 187.028v-2.208h4.497v2.208h-0.538l-2.411 8.268h-4.363l-2.41-8.268h-0.538v-2.208h5.17v2.208h-0.7l0.929 4.511h0.135l0.929-4.511zM298.535 195.296h-9.089v-2.208h0.673v-6.06h-0.673v-2.208h9.089v4.067h-3.016v-1.859h-1.629v2.128h1.185v1.535h-1.185v2.397h1.629v-2.128h3.016zM299.047 195.296v-2.208h0.673v-6.06h-0.673v-2.208h6.181c1.158 0 2.042 0.238 2.653 0.714 0.61 0.476 0.916 1.248 0.915 2.316v0c0 0.601-0.121 1.122-0.363 1.562-0.242 0.44-0.588 0.745-1.037 0.916v0l0.013 0.134c0.862 0.135 1.293 0.664 1.293 1.589v0 1.037h0.633v2.208h-4.269v-3.164c0-0.35-0.052-0.615-0.156-0.795-0.102-0.18-0.264-0.301-0.485-0.363-0.219-0.063-0.531-0.094-0.934-0.094v0 2.208h0.888v2.208zM303.491 189.237h0.727c0.26 0 0.455-0.07 0.584-0.21 0.131-0.138 0.197-0.355 0.197-0.652v0-0.485c0-0.296-0.066-0.514-0.197-0.654-0.129-0.138-0.324-0.207-0.584-0.208v0h-0.727z" fill="#000000" data-fill-palette-color="secondary"></path></g><g transform="matrix(1,0,0,1,29.33176499999999,45.8974325759974)"><svg viewBox="0 0 316.416 47.92320484800521" height="47.92320484800521" width="316.416"><g><svg viewBox="0 0 384.6200589186501 58.25314103019539" height="47.92320484800521" width="316.416"><g transform="matrix(1,0,0,1,68.20405891865009,8.05090444049734)"><svg viewBox="0 0 316.416 42.151332149200705" height="42.151332149200705" width="316.416"><g><svg viewBox="0 0 316.416 42.151332149200705" height="42.151332149200705" width="316.416"><g><svg viewBox="0 0 316.416 42.151332149200705" height="42.151332149200705" width="316.416"><g transform="matrix(1,0,0,1,0,0)"><svg width="316.416" viewBox="1.51 -36.38 274.89 36.620000000000005" height="42.151332149200705" data-palette-color="#89939e"><path d="M38.96-25.29L38.96-25.29Q38.96-22.56 37.35-20.68 35.74-18.8 33.15-17.55 30.57-16.31 27.34-15.6 24.12-14.89 20.92-14.55 17.72-14.21 14.87-14.11 12.01-14.01 10.16-14.01L10.16-14.01Q10.16-12.3 10.13-10.67 10.11-9.03 10.11-7.32L10.11-7.32Q10.11-6.88 10.11-5.81 10.11-4.74 10.16-3.54 10.21-2.34 10.38-1.32 10.55-0.29 10.84 0L10.84 0 2.29 0Q2.59-0.29 2.78-1.9 2.98-3.52 3.1-5.76 3.22-8.01 3.25-10.64 3.27-13.28 3.27-15.65 3.27-18.02 3.25-19.87 3.22-21.73 3.22-22.41L3.22-22.41Q3.22-22.85 3.25-23.97 3.27-25.1 3.25-26.56 3.22-28.03 3.15-29.64 3.08-31.25 2.88-32.62 2.69-33.98 2.34-34.91 2-35.84 1.51-35.99L1.51-35.99 8.54-35.99Q9.23-35.99 10.38-36.01 11.52-36.04 12.21-35.94L12.21-35.94Q14.79-35.94 17.33-35.84 19.87-35.74 22.46-35.5L22.46-35.5Q23.97-35.35 25.81-35.11 27.64-34.86 29.47-34.4 31.3-33.94 33.01-33.2 34.72-32.47 36.04-31.4 37.35-30.32 38.16-28.81 38.96-27.29 38.96-25.29ZM30.13-25.34L30.13-25.34Q30.13-26.76 29.1-27.71 28.08-28.66 26.49-29.27 24.9-29.88 22.92-30.2 20.95-30.52 19.02-30.64 17.09-30.76 15.48-30.76 13.87-30.76 12.94-30.76L12.94-30.76 10.6-30.76Q10.25-27.78 10.21-24.8 10.16-21.83 10.16-18.85L10.16-18.85Q12.11-18.85 14.04-18.9 15.97-18.95 17.92-19.09L17.92-19.09Q19.34-19.19 21.44-19.43 23.54-19.68 25.46-20.31 27.39-20.95 28.76-22.14 30.13-23.34 30.13-25.34ZM84.67-35.99L84.67-35.99Q83.79-35.5 82.13-33.81 80.47-32.13 78.42-29.79 76.36-27.44 74.12-24.71 71.87-21.97 69.82-19.41 67.77-16.85 66.11-14.77 64.45-12.7 63.62-11.62L63.62-11.62Q63.57-10.6 63.57-9.57 63.57-8.54 63.57-7.47L63.57-7.47Q63.57-7.03 63.57-5.91 63.57-4.79 63.64-3.59 63.72-2.39 63.86-1.34 64.01-0.29 64.35 0L64.35 0 55.42 0Q55.66-0.24 55.83-1.12 56-2 56.1-3.2 56.2-4.39 56.22-5.76 56.25-7.13 56.27-8.35 56.3-9.57 56.3-10.52 56.3-11.47 56.3-11.87L56.3-11.87Q55.47-12.89 53.81-14.97 52.15-17.04 50.07-19.56 48-22.07 45.75-24.8 43.5-27.54 41.45-29.86 39.4-32.18 37.74-33.86 36.08-35.55 35.25-35.99L35.25-35.99Q38.18-35.99 41.04-35.96 43.89-35.94 46.82-35.99L46.82-35.99Q46.63-35.89 46.63-35.55L46.63-35.55Q46.63-34.81 47.46-33.4 48.29-31.98 49.56-30.2 50.83-28.42 52.39-26.46 53.95-24.51 55.42-22.75 56.88-21 58.1-19.63 59.32-18.26 59.91-17.63L59.91-17.63 60.15-17.63Q60.74-18.26 61.94-19.63 63.13-21 64.62-22.75 66.11-24.51 67.65-26.46 69.19-28.42 70.48-30.2 71.77-31.98 72.58-33.4 73.39-34.81 73.39-35.55L73.39-35.55Q73.39-35.84 73.19-35.99L73.19-35.99Q76.07-35.94 78.93-35.96 81.78-35.99 84.67-35.99ZM111.81-19.58Q112.06-20.65 112.25-21.7 112.45-22.75 112.45-23.88L112.45-23.88Q112.45-26.07 111.66-27.51 110.88-28.96 109.54-29.81 108.2-30.66 106.46-30.98 104.73-31.3 102.83-31.3L102.83-31.3Q101.66-31.3 100.14-31.13 98.63-30.96 97.04-30.59 95.45-30.22 93.89-29.64 92.33-29.05 91.13-28.17 89.94-27.29 89.18-26.1 88.42-24.9 88.42-23.39L88.42-23.39Q88.42-22.07 89.37-21.12 90.33-20.17 91.82-19.48 93.31-18.8 95.16-18.36 97.02-17.92 98.82-17.6 100.63-17.29 102.19-17.11 103.75-16.94 104.68-16.8L104.68-16.8Q105.85-16.6 107.54-16.33 109.22-16.06 111.03-15.63 112.84-15.19 114.62-14.55 116.4-13.92 117.82-13.01 119.23-12.11 120.11-10.91 120.99-9.72 120.99-8.15L120.99-8.15Q120.99-6.49 120.09-5.22 119.18-3.96 117.7-3 116.21-2.05 114.37-1.44 112.54-0.83 110.66-0.44 108.78-0.05 107.08 0.1 105.37 0.24 104.19 0.24L104.19 0.24Q99.02 0.24 93.94-0.61 88.86-1.46 84.03-3.37L84.03-3.37Q83.54-3.56 82.91-3.83 82.27-4.1 81.59-4.39 80.9-4.69 80.27-4.88 79.63-5.08 79.15-5.13L79.15-5.13Q79.44-5.42 80.05-5.96 80.66-6.49 81.27-7.13 81.88-7.76 82.39-8.33 82.91-8.89 83-9.18L83-9.18Q87.3-6.54 92.4-5.27 97.5-4 102.53-4L102.53-4Q103.36-4 105.15-4.13 106.93-4.25 108.71-4.64 110.49-5.03 111.84-5.74 113.18-6.45 113.18-7.62L113.18-7.62Q113.18-9.18 111.79-10.11 110.4-11.04 108.1-11.65 105.81-12.26 102.88-12.62 99.95-12.99 96.89-13.43 93.84-13.87 90.91-14.48 87.98-15.09 85.69-16.14 83.39-17.19 82-18.8 80.61-20.41 80.61-22.85L80.61-22.85Q80.61-25.44 81.66-27.44 82.71-29.44 84.49-30.96 86.27-32.47 88.54-33.5 90.82-34.52 93.28-35.16 95.75-35.79 98.19-36.08 100.63-36.38 102.68-36.38L102.68-36.38Q106.1-36.38 109.17-35.84 112.25-35.3 114.52-33.89 116.79-32.47 118.13-29.93 119.48-27.39 119.48-23.39L119.48-23.39Q119.48-22.41 119.4-21.48 119.33-20.56 119.23-19.58L119.23-19.58 111.81-19.58ZM163.27-35.99Q162.64-35.99 162.25-34.86 161.86-33.74 161.61-32.03 161.37-30.32 161.25-28.25 161.13-26.17 161.08-24.27 161.03-22.36 161.03-20.9 161.03-19.43 161.03-18.9L161.03-18.9Q161.03-15.97 161-13.11 160.98-10.25 160.98-7.32L160.98-7.32Q160.98-6.93 160.98-5.81 160.98-4.69 161.03-3.49 161.08-2.29 161.25-1.27 161.42-0.24 161.71 0L161.71 0 153.17 0Q153.46-0.24 153.63-1.44 153.8-2.64 153.9-4.27 154-5.91 154.05-7.81 154.09-9.72 154.09-11.43 154.09-13.13 154.09-14.43 154.09-15.72 154.09-16.16L154.09-16.16Q149.16-16.36 144.28-16.41 139.4-16.46 134.47-16.46L134.47-16.46 132.66-16.46Q132.66-14.16 132.63-11.91 132.61-9.67 132.61-7.37L132.61-7.37Q132.61-6.98 132.61-5.86 132.61-4.74 132.66-3.52 132.71-2.29 132.88-1.27 133.05-0.24 133.34 0L133.34 0 124.8 0Q125.09-0.29 125.29-1.88 125.48-3.47 125.6-5.71 125.72-7.96 125.75-10.6 125.77-13.23 125.77-15.63 125.77-18.02 125.75-19.85 125.72-21.68 125.72-22.41L125.72-22.41Q125.72-22.8 125.75-23.95 125.77-25.1 125.75-26.56 125.72-28.03 125.65-29.64 125.58-31.25 125.38-32.62 125.19-33.98 124.85-34.91 124.5-35.84 124.02-35.99L124.02-35.99 134.95-35.99Q134.37-35.99 133.98-35.01 133.59-34.03 133.34-32.52 133.1-31.01 132.95-29.17 132.81-27.34 132.76-25.68 132.71-24.02 132.71-22.73 132.71-21.44 132.71-21L132.71-21Q138.03-20.9 143.38-20.85 148.72-20.8 154.09-20.95L154.09-20.95 154.09-22.41Q154.09-22.85 154.12-23.97 154.14-25.1 154.12-26.56 154.09-28.03 154.02-29.64 153.95-31.25 153.75-32.62 153.56-33.98 153.22-34.91 152.87-35.84 152.39-35.99L152.39-35.99 163.27-35.99ZM202.53-0.1L167.08 0Q167.37-0.29 167.57-1.88 167.76-3.47 167.89-5.71 168.01-7.96 168.03-10.6 168.06-13.23 168.06-15.63 168.06-18.02 168.03-19.85 168.01-21.68 168.01-22.41L168.01-22.41Q168.01-22.85 168.01-23.93 168.01-25 167.98-26.32 167.96-27.64 167.91-29.13 167.86-30.62 167.74-31.88 167.62-33.15 167.42-34.11 167.23-35.06 166.93-35.4L166.93-35.4Q166.79-35.55 166.62-35.69 166.45-35.84 166.3-35.99L166.3-35.99 201.75-35.89 201.21-30.47Q200.97-30.57 200.01-30.62 199.06-30.66 197.7-30.71 196.33-30.76 194.77-30.79 193.2-30.81 191.81-30.81 190.42-30.81 189.35-30.81 188.27-30.81 187.88-30.81L187.88-30.81Q181.63-30.81 175.33-30.66L175.33-30.66Q175.09-28.22 175.04-25.81 174.99-23.39 174.99-20.9L174.99-20.9 197.45-21.14 197.4-15.92Q197.21-15.97 196.45-16.04 195.69-16.11 194.67-16.14 193.64-16.16 192.45-16.19 191.25-16.21 190.2-16.21 189.15-16.21 188.32-16.21 187.49-16.21 187.2-16.21L187.2-16.21Q181.09-16.21 174.94-16.06L174.94-16.06Q174.94-13.87 174.92-11.69 174.89-9.52 174.89-7.32L174.89-7.32 174.89-5.37Q178.36-5.22 181.8-5.22 185.24-5.22 188.71-5.22L188.71-5.22Q189.05-5.22 190.13-5.22 191.2-5.22 192.62-5.22 194.03-5.22 195.57-5.25 197.11-5.27 198.48-5.3 199.84-5.32 200.8-5.37 201.75-5.42 201.99-5.52L201.99-5.52 202.53-0.1ZM238.95-0.1L206.04 0Q206.34-0.29 206.53-1.88 206.73-3.47 206.85-5.71 206.97-7.96 206.99-10.57 207.02-13.18 207.02-15.58 207.02-17.97 206.99-19.82 206.97-21.68 206.97-22.41L206.97-22.41Q206.97-22.8 206.99-23.95 207.02-25.1 206.99-26.56 206.97-28.03 206.9-29.64 206.82-31.25 206.63-32.62 206.43-33.98 206.09-34.91 205.75-35.84 205.26-35.99L205.26-35.99 216.2-35.99Q215.56-35.99 215.15-34.86 214.73-33.74 214.49-32.03 214.25-30.32 214.12-28.25 214-26.17 213.95-24.27 213.9-22.36 213.9-20.87 213.9-19.38 213.9-18.85L213.9-18.85Q213.9-15.48 213.83-12.11 213.76-8.74 213.85-5.37L213.85-5.37Q215.51-5.27 216.93-5.25 218.35-5.22 219.71-5.22 221.08-5.22 222.52-5.22 223.96-5.22 225.62-5.22L225.62-5.22Q225.96-5.22 226.99-5.22 228.01-5.22 229.36-5.22 230.7-5.22 232.21-5.25 233.73-5.27 235.02-5.3 236.32-5.32 237.24-5.37 238.17-5.42 238.42-5.52L238.42-5.52 238.95-0.1ZM275.86-30.47Q275.62-30.57 274.67-30.62 273.72-30.66 272.35-30.71 270.98-30.76 269.42-30.79 267.86-30.81 266.46-30.81 265.07-30.81 264-30.81 262.92-30.81 262.53-30.81L262.53-30.81Q256.28-30.81 249.99-30.66L249.99-30.66Q249.74-28.22 249.69-25.81 249.64-23.39 249.64-20.9L249.64-20.9 271.81-21.14 271.76-15.92Q271.47-16.02 269.98-16.09 268.49-16.16 266.78-16.19 265.07-16.21 263.51-16.21 261.95-16.21 261.51-16.21L261.51-16.21Q255.6-16.21 249.59-16.06L249.59-16.06Q249.59-13.87 249.57-11.69 249.55-9.52 249.55-7.32L249.55-7.32Q249.55-6.93 249.55-5.81 249.55-4.69 249.59-3.49 249.64-2.29 249.81-1.27 249.99-0.24 250.28 0L250.28 0 241.73 0Q242.03-0.29 242.22-1.88 242.42-3.47 242.54-5.71 242.66-7.96 242.69-10.6 242.71-13.23 242.71-15.63 242.71-18.02 242.69-19.85 242.66-21.68 242.66-22.41L242.66-22.41Q242.66-22.85 242.66-23.93 242.66-25 242.64-26.32 242.61-27.64 242.56-29.13 242.51-30.62 242.39-31.88 242.27-33.15 242.07-34.11 241.88-35.06 241.59-35.4L241.59-35.4Q241.44-35.55 241.27-35.69 241.1-35.84 240.95-35.99L240.95-35.99 276.4-35.89 275.86-30.47Z" opacity="1" transform="matrix(1,0,0,1,0,0)" fill="#000000" class="undefined-text-0" data-fill-palette-color="primary" id="text-0"></path></svg></g></svg></g></svg></g></svg></g><g><svg viewBox="0 0 58.25314103019539 58.25314103019539" height="58.25314103019539" width="58.25314103019539"><g><svg xmlns="http://www.w3.org/2000/svg" xmlns:xlink="http://www.w3.org/1999/xlink" version="1.1" x="0" y="0" viewBox="5 5 90 90" enable-background="new 0 0 100 100" xml:space="preserve" height="58.25314103019539" width="58.25314103019539" class="icon-icon-0" data-fill-palette-color="accent" id="icon-0"><path d="M61.25 50v33.75h-5.625V27.5h22.5v-4.406h10.969l-1.656-1.641 1.688-1.641h-11V5h-33.75v78.75H38.75v-45H5v22.5h22.5V95h45V72.5H95V50H61.25zM70.333 10h3.833v3.833h-3.833V10zM63.5 10h3.833v3.833H63.5V10zM12.708 47.875H8.875v-3.834h3.833V47.875zM19.291 47.875h-3.833v-3.834h3.833V47.875zM84.458 58.875h-3.833v-3.834h3.833V58.875zM91.041 58.875h-3.833v-3.834h3.833V58.875z" fill="#000000" data-fill-palette-color="accent"></path></svg></g></svg></g></svg></g></svg></g></svg></g></svg><rect width="375.07953" height="139.71807" fill="none" stroke="none" visibility="hidden"></rect></g></svg></g></svg>