<?xml version="1.0" encoding="UTF-8" standalone="no"?>
<svg
   version="1.1"
   width="1000"
   height="373"
   viewBox="0 0 1000 373"
   id="svg255"
   sodipodi:docname="logo-no-background-no-border.svg"
   inkscape:version="1.2.1 (9c6d41e410, 2022-07-14)"
   xmlns:inkscape="http://www.inkscape.org/namespaces/inkscape"
   xmlns:sodipodi="http://sodipodi.sourceforge.net/DTD/sodipodi-0.dtd"
   xmlns="http://www.w3.org/2000/svg"
   xmlns:svg="http://www.w3.org/2000/svg">
  <defs
     id="defs259" />
  <sodipodi:namedview
     id="namedview257"
     pagecolor="#505050"
     bordercolor="#eeeeee"
     borderopacity="1"
     inkscape:showpageshadow="0"
     inkscape:pageopacity="0"
     inkscape:pagecheckerboard="0"
     inkscape:deskcolor="#505050"
     showgrid="false"
     showguides="true"
     inkscape:zoom="1.253"
     inkscape:cx="498.80287"
     inkscape:cy="174.78053"
     inkscape:window-width="1920"
     inkscape:window-height="1049"
     inkscape:window-x="0"
     inkscape:window-y="31"
     inkscape:window-maximized="1"
     inkscape:current-layer="svg255">
    <sodipodi:guide
       position="76.616121,225.35435"
       orientation="1,0"
       id="guide419"
       inkscape:locked="false" />
    <sodipodi:guide
       position="923.38388,60.948923"
       orientation="1,0"
       id="guide421"
       inkscape:locked="false" />
    <sodipodi:guide
       position="645.65044,254.0854"
       orientation="0,-1"
       id="guide423"
       inkscape:locked="false" />
    <sodipodi:guide
       position="579.40942,120.80527"
       orientation="0,-1"
       id="guide425"
       inkscape:locked="false" />
  </sodipodi:namedview>
  <g
     transform="matrix(1.1825384,0,0,1.422032,-91.877238,-80.643432)"
     id="g253">
    <svg
       viewBox="0 0 375 140"
       data-background-color="#000000"
       preserveAspectRatio="xMidYMid"
       height="373"
       width="1000"
       version="1.1"
       id="svg251">
      <defs
         id="defs196" />
      <g
         id="tight-bounds"
         transform="translate(-0.03976,0.140875)">
        <svg
           viewBox="0 0 375.07953 139.71807"
           height="139.71806"
           width="375.07953"
           version="1.1"
           id="svg246">
          <g
             id="g200">
            <svg
               version="1.1"
               id="svg198"
               width="100%"
               height="100%" />
          </g>
          <g
             id="g244">
            <svg
               viewBox="0 0 375.07953 139.71807"
               height="139.71806"
               width="375.07953"
               version="1.1"
               id="svg242">
              <g
                 transform="translate(-10.22024,-55.76675)"
                 id="g206" />
              <g
                 transform="translate(29.331765,45.897433)"
                 id="g240">
                <svg
                   viewBox="0 0 316.416 47.923205"
                   height="47.923206"
                   width="316.41599"
                   version="1.1"
                   id="svg238">
                  <g
                     id="g236">
                    <svg
                       viewBox="0 0 384.62006 58.253141"
                       height="47.923206"
                       width="316.41599"
                       version="1.1"
                       id="svg234">
                      <g
                         transform="translate(68.204059,8.0509044)"
                         id="g223">
                        <svg
                           viewBox="0 0 316.416 42.151332"
                           height="42.151333"
                           width="316.41599"
                           version="1.1"
                           id="svg221">
                          <g
                             id="g219">
                            <svg
                               viewBox="0 0 316.416 42.151332"
                               height="42.151333"
                               width="316.41599"
                               version="1.1"
                               id="svg217">
                              <g
                                 id="g215">
                                <svg
                                   viewBox="0 0 316.416 42.151332"
                                   height="42.151333"
                                   width="316.41599"
                                   version="1.1"
                                   id="svg213">
                                <g
                                   id="g211">
                                <svg
                                   width="316.41599"
                                   viewBox="1.51 -36.38 274.89 36.62"
                                   height="42.151333"
                                   data-palette-color="#89939e"
                                   version="1.1"
                                   id="svg209">
                                <path
                                   d="m 38.96,-25.29 v 0 q 0,2.73 -1.61,4.61 -1.61,1.88 -4.2,3.13 -2.58,1.24 -5.81,1.95 -3.22,0.71 -6.42,1.05 -3.2,0.34 -6.05,0.44 -2.86,0.1 -4.71,0.1 v 0 q 0,1.71 -0.03,3.34 -0.02,1.64 -0.02,3.35 v 0 q 0,0.44 0,1.51 0,1.07 0.05,2.27 0.05,1.2 0.22,2.22 0.17,1.03 0.46,1.32 V 0 H 2.29 q 0.3,-0.29 0.49,-1.9 0.2,-1.62 0.32,-3.86 0.12,-2.25 0.15,-4.88 0.02,-2.64 0.02,-5.01 0,-2.37 -0.02,-4.22 -0.03,-1.86 -0.03,-2.54 v 0 q 0,-0.44 0.03,-1.56 0.02,-1.13 0,-2.59 -0.03,-1.47 -0.1,-3.08 Q 3.08,-31.25 2.88,-32.62 2.69,-33.98 2.34,-34.91 2,-35.84 1.51,-35.99 v 0 h 7.03 q 0.69,0 1.84,-0.02 1.14,-0.03 1.83,0.07 v 0 q 2.58,0 5.12,0.1 2.54,0.1 5.13,0.34 v 0 q 1.51,0.15 3.35,0.39 1.83,0.25 3.66,0.71 1.83,0.46 3.54,1.2 1.71,0.73 3.03,1.8 1.31,1.08 2.12,2.59 0.8,1.52 0.8,3.52 z m -8.83,-0.05 v 0 q 0,-1.42 -1.03,-2.37 -1.02,-0.95 -2.61,-1.56 -1.59,-0.61 -3.57,-0.93 -1.97,-0.32 -3.9,-0.44 -1.93,-0.12 -3.54,-0.12 -1.61,0 -2.54,0 v 0 H 10.6 q -0.35,2.98 -0.39,5.96 -0.05,2.97 -0.05,5.95 v 0 q 1.95,0 3.88,-0.05 1.93,-0.05 3.88,-0.19 v 0 q 1.42,-0.1 3.52,-0.34 2.1,-0.25 4.02,-0.88 1.93,-0.64 3.3,-1.83 1.37,-1.2 1.37,-3.2 z m 54.54,-10.65 v 0 q -0.88,0.49 -2.54,2.18 -1.66,1.68 -3.71,4.02 -2.06,2.35 -4.3,5.08 -2.25,2.74 -4.3,5.3 -2.05,2.56 -3.71,4.64 -1.66,2.07 -2.49,3.15 v 0 q -0.05,1.02 -0.05,2.05 0,1.03 0,2.1 v 0 q 0,0.44 0,1.56 0,1.12 0.07,2.32 0.08,1.2 0.22,2.25 0.15,1.05 0.49,1.34 V 0 H 55.42 Q 55.66,-0.24 55.83,-1.12 56,-2 56.1,-3.2 q 0.1,-1.19 0.12,-2.56 0.03,-1.37 0.05,-2.59 0.03,-1.22 0.03,-2.17 0,-0.95 0,-1.35 v 0 q -0.83,-1.02 -2.49,-3.1 -1.66,-2.07 -3.74,-4.59 -2.07,-2.51 -4.32,-5.24 -2.25,-2.74 -4.3,-5.06 -2.05,-2.32 -3.71,-4 -1.66,-1.69 -2.49,-2.13 v 0 q 2.93,0 5.79,0.03 2.85,0.02 5.78,-0.03 v 0 q -0.19,0.1 -0.19,0.44 v 0 q 0,0.74 0.83,2.15 0.83,1.42 2.1,3.2 1.27,1.78 2.83,3.74 1.56,1.95 3.03,3.71 1.46,1.75 2.68,3.12 1.22,1.37 1.81,2 v 0 h 0.24 q 0.59,-0.63 1.79,-2 1.19,-1.37 2.68,-3.12 1.49,-1.76 3.03,-3.71 1.54,-1.96 2.83,-3.74 1.29,-1.78 2.1,-3.2 0.81,-1.41 0.81,-2.15 v 0 q 0,-0.29 -0.2,-0.44 v 0 q 2.88,0.05 5.74,0.03 2.85,-0.03 5.74,-0.03 z m 27.14,16.41 q 0.25,-1.07 0.44,-2.12 0.2,-1.05 0.2,-2.18 v 0 q 0,-2.19 -0.79,-3.63 -0.78,-1.45 -2.12,-2.3 -1.34,-0.85 -3.08,-1.17 -1.73,-0.32 -3.63,-0.32 v 0 q -1.17,0 -2.69,0.17 -1.51,0.17 -3.1,0.54 -1.59,0.37 -3.15,0.95 -1.56,0.59 -2.76,1.47 -1.19,0.88 -1.95,2.07 -0.76,1.2 -0.76,2.71 v 0 q 0,1.32 0.95,2.27 0.96,0.95 2.45,1.64 1.49,0.68 3.34,1.12 1.86,0.44 3.66,0.76 1.81,0.31 3.37,0.49 1.56,0.17 2.49,0.31 v 0 q 1.17,0.2 2.86,0.47 1.68,0.27 3.49,0.7 1.81,0.44 3.59,1.08 1.78,0.63 3.2,1.54 1.41,0.9 2.29,2.1 0.88,1.19 0.88,2.76 v 0 q 0,1.66 -0.9,2.93 -0.91,1.26 -2.39,2.22 -1.49,0.95 -3.33,1.56 -1.83,0.61 -3.71,1 -1.88,0.39 -3.58,0.54 -1.71,0.14 -2.89,0.14 v 0 q -5.17,0 -10.25,-0.85 -5.08,-0.85 -9.91,-2.76 v 0 q -0.49,-0.19 -1.12,-0.46 -0.64,-0.27 -1.32,-0.56 -0.69,-0.3 -1.32,-0.49 -0.64,-0.2 -1.12,-0.25 v 0 q 0.29,-0.29 0.9,-0.83 0.61,-0.53 1.22,-1.17 0.61,-0.63 1.12,-1.2 0.52,-0.56 0.61,-0.85 v 0 q 4.3,2.64 9.4,3.91 5.1,1.27 10.13,1.27 v 0 q 0.83,0 2.62,-0.13 1.78,-0.12 3.56,-0.51 1.78,-0.39 3.13,-1.1 1.34,-0.71 1.34,-1.88 v 0 q 0,-1.56 -1.39,-2.49 -1.39,-0.93 -3.69,-1.54 -2.29,-0.61 -5.22,-0.97 -2.93,-0.37 -5.99,-0.81 -3.05,-0.44 -5.98,-1.05 -2.93,-0.61 -5.22,-1.66 -2.3,-1.05 -3.69,-2.66 -1.39,-1.61 -1.39,-4.05 v 0 q 0,-2.59 1.05,-4.59 1.05,-2 2.83,-3.52 1.78,-1.51 4.05,-2.54 2.28,-1.02 4.74,-1.66 2.47,-0.63 4.91,-0.92 2.44,-0.3 4.49,-0.3 v 0 q 3.42,0 6.49,0.54 3.08,0.54 5.35,1.95 2.27,1.42 3.61,3.96 1.35,2.54 1.35,6.54 v 0 q 0,0.98 -0.08,1.91 -0.07,0.92 -0.17,1.9 v 0 z m 51.46,-16.41 q -0.63,0 -1.02,1.13 -0.39,1.12 -0.64,2.83 -0.24,1.71 -0.36,3.78 -0.12,2.08 -0.17,3.98 -0.05,1.91 -0.05,3.37 0,1.47 0,2 v 0 q 0,2.93 -0.03,5.79 -0.02,2.86 -0.02,5.79 v 0 q 0,0.39 0,1.51 0,1.12 0.05,2.32 0.05,1.2 0.22,2.22 0.17,1.03 0.46,1.27 v 0 h -8.54 q 0.29,-0.24 0.46,-1.44 0.17,-1.2 0.27,-2.83 0.1,-1.64 0.15,-3.54 0.04,-1.91 0.04,-3.62 0,-1.7 0,-3 0,-1.29 0,-1.73 v 0 q -4.93,-0.2 -9.81,-0.25 -4.88,-0.05 -9.81,-0.05 v 0 h -1.81 q 0,2.3 -0.03,4.55 -0.02,2.24 -0.02,4.54 v 0 q 0,0.39 0,1.51 0,1.12 0.05,2.34 0.05,1.23 0.22,2.25 0.17,1.03 0.46,1.27 v 0 h -8.54 q 0.29,-0.29 0.49,-1.88 0.19,-1.59 0.31,-3.83 0.12,-2.25 0.15,-4.89 0.02,-2.63 0.02,-5.03 0,-2.39 -0.02,-4.22 -0.03,-1.83 -0.03,-2.56 v 0 q 0,-0.39 0.03,-1.54 0.02,-1.15 0,-2.61 -0.03,-1.47 -0.1,-3.08 -0.07,-1.61 -0.27,-2.98 -0.19,-1.36 -0.53,-2.29 -0.35,-0.93 -0.83,-1.08 v 0 h 10.93 q -0.58,0 -0.97,0.98 -0.39,0.98 -0.64,2.49 -0.24,1.51 -0.39,3.35 -0.14,1.83 -0.19,3.49 -0.05,1.66 -0.05,2.95 0,1.29 0,1.73 v 0 q 5.32,0.1 10.67,0.15 5.34,0.05 10.71,-0.1 v 0 -1.46 q 0,-0.44 0.03,-1.56 0.02,-1.13 0,-2.59 -0.03,-1.47 -0.1,-3.08 -0.07,-1.61 -0.27,-2.98 -0.19,-1.36 -0.53,-2.29 -0.35,-0.93 -0.83,-1.08 v 0 z M 202.53,-0.1 167.08,0 q 0.29,-0.29 0.49,-1.88 0.19,-1.59 0.32,-3.83 0.12,-2.25 0.14,-4.89 0.03,-2.63 0.03,-5.03 0,-2.39 -0.03,-4.22 -0.02,-1.83 -0.02,-2.56 v 0 q 0,-0.44 0,-1.52 0,-1.07 -0.03,-2.39 -0.02,-1.32 -0.07,-2.81 -0.05,-1.49 -0.17,-2.75 -0.12,-1.27 -0.32,-2.23 -0.19,-0.95 -0.49,-1.29 v 0 q -0.14,-0.15 -0.31,-0.29 -0.17,-0.15 -0.32,-0.3 v 0 l 35.45,0.1 -0.54,5.42 q -0.24,-0.1 -1.2,-0.15 -0.95,-0.04 -2.31,-0.09 -1.37,-0.05 -2.93,-0.08 -1.57,-0.02 -2.96,-0.02 -1.39,0 -2.46,0 -1.08,0 -1.47,0 v 0 q -6.25,0 -12.55,0.15 v 0 q -0.24,2.44 -0.29,4.85 -0.05,2.42 -0.05,4.91 v 0 l 22.46,-0.24 -0.05,5.22 q -0.19,-0.05 -0.95,-0.12 -0.76,-0.07 -1.78,-0.1 -1.03,-0.02 -2.22,-0.05 -1.2,-0.02 -2.25,-0.02 -1.05,0 -1.88,0 -0.83,0 -1.12,0 v 0 q -6.11,0 -12.26,0.15 v 0 q 0,2.19 -0.02,4.37 -0.03,2.17 -0.03,4.37 v 0 1.95 q 3.47,0.15 6.91,0.15 3.44,0 6.91,0 v 0 q 0.34,0 1.42,0 1.07,0 2.49,0 1.41,0 2.95,-0.03 1.54,-0.02 2.91,-0.05 1.36,-0.02 2.32,-0.07 0.95,-0.05 1.19,-0.15 v 0 z m 36.42,0 -32.91,0.1 q 0.3,-0.29 0.49,-1.88 0.2,-1.59 0.32,-3.83 0.12,-2.25 0.14,-4.86 0.03,-2.61 0.03,-5.01 0,-2.39 -0.03,-4.24 -0.02,-1.86 -0.02,-2.59 v 0 q 0,-0.39 0.02,-1.54 0.03,-1.15 0,-2.61 -0.02,-1.47 -0.09,-3.08 -0.08,-1.61 -0.27,-2.98 -0.2,-1.36 -0.54,-2.29 -0.34,-0.93 -0.83,-1.08 v 0 h 10.94 q -0.64,0 -1.05,1.13 -0.42,1.12 -0.66,2.83 -0.24,1.71 -0.37,3.78 -0.12,2.08 -0.17,3.98 -0.05,1.91 -0.05,3.4 0,1.49 0,2.02 v 0 q 0,3.37 -0.07,6.74 -0.07,3.37 0.02,6.74 v 0 q 1.66,0.1 3.08,0.12 1.42,0.03 2.78,0.03 1.37,0 2.81,0 1.44,0 3.1,0 v 0 q 0.34,0 1.37,0 1.02,0 2.37,0 1.34,0 2.85,-0.03 1.52,-0.02 2.81,-0.05 1.3,-0.02 2.22,-0.07 0.93,-0.05 1.18,-0.15 v 0 z m 36.91,-30.37 q -0.24,-0.1 -1.19,-0.15 -0.95,-0.04 -2.32,-0.09 -1.37,-0.05 -2.93,-0.08 -1.56,-0.02 -2.96,-0.02 -1.39,0 -2.46,0 -1.08,0 -1.47,0 v 0 q -6.25,0 -12.54,0.15 v 0 q -0.25,2.44 -0.3,4.85 -0.05,2.42 -0.05,4.91 v 0 l 22.17,-0.24 -0.05,5.22 q -0.29,-0.1 -1.78,-0.17 -1.49,-0.07 -3.2,-0.1 -1.71,-0.02 -3.27,-0.02 -1.56,0 -2,0 v 0 q -5.91,0 -11.92,0.15 v 0 q 0,2.19 -0.02,4.37 -0.02,2.17 -0.02,4.37 v 0 q 0,0.39 0,1.51 0,1.12 0.04,2.32 0.05,1.2 0.22,2.22 0.18,1.03 0.47,1.27 v 0 h -8.55 q 0.3,-0.29 0.49,-1.88 0.2,-1.59 0.32,-3.83 0.12,-2.25 0.15,-4.89 0.02,-2.63 0.02,-5.03 0,-2.39 -0.02,-4.22 -0.03,-1.83 -0.03,-2.56 v 0 q 0,-0.44 0,-1.52 0,-1.07 -0.02,-2.39 -0.03,-1.32 -0.08,-2.81 -0.05,-1.49 -0.17,-2.75 -0.12,-1.27 -0.32,-2.23 -0.19,-0.95 -0.48,-1.29 v 0 q -0.15,-0.15 -0.32,-0.29 -0.17,-0.15 -0.32,-0.3 v 0 l 35.45,0.1 z"
                                   opacity="1"
                                   fill="#89939e"
                                   class="undefined-text-0"
                                   data-fill-palette-color="primary"
                                   id="text-0" />
                                </svg>
                                </g>
                                </svg>
                              </g>
                            </svg>
                          </g>
                        </svg>
                      </g>
                      <g
                         id="g232">
                        <svg
                           viewBox="0 0 58.253141 58.253141"
                           height="58.253139"
                           width="58.253139"
                           version="1.1"
                           id="svg230">
                          <g
                             id="g228">
                            <svg
                               version="1.1"
                               x="0"
                               y="0"
                               viewBox="5 5 90 90"
                               enable-background="new 0 0 100 100"
                               xml:space="preserve"
                               height="58.253139"
                               width="58.253139"
                               class="icon-icon-0"
                               data-fill-palette-color="accent"
                               id="icon-0"><path
                                 d="M 61.25,50 V 83.75 H 55.625 V 27.5 h 22.5 v -4.406 h 10.969 l -1.656,-1.641 1.688,-1.641 h -11 V 5 H 44.376 V 83.75 H 38.75 v -45 H 5 v 22.5 H 27.5 V 95 h 45 V 72.5 H 95 V 50 Z m 9.083,-40 h 3.833 v 3.833 H 70.333 Z M 63.5,10 h 3.833 v 3.833 H 63.5 Z M 12.708,47.875 H 8.875 v -3.834 h 3.833 z m 6.583,0 h -3.833 v -3.834 h 3.833 z m 65.167,11 h -3.833 v -3.834 h 3.833 z m 6.583,0 h -3.833 v -3.834 h 3.833 z"
                                 fill="#dedede"
                                 data-fill-palette-color="accent"
                                 id="path225" /></svg>
                          </g>
                        </svg>
                      </g>
                    </svg>
                  </g>
                </svg>
              </g>
            </svg>
          </g>
        </svg>
        <rect
           width="375.07953"
           height="139.71806"
           fill="none"
           stroke="none"
           visibility="hidden"
           id="rect248"
           x="0"
           y="0" />
      </g>
    </svg>
  </g>
</svg>
